0
SECTION
2
HEADER
9
$INSUNITS
70
4
9
$ACADVER
1
AC1014
9
$HANDSEED
5
FFFF
0
ENDSEC
0
SECTION
2
TABLES
0
TABLE
2
VPORT
5
8
100
AcDbSymbolTable
0
ENDTAB
0
TABLE
2
LTYPE
5
5
100
AcDbSymbolTable
0
LTYPE
5
14
100
AcDbSymbolTableRecord
100
AcDbLinetypeTableRecord
2
BYBLOCK
70
0
0
LTYPE
5
15
100
AcDbSymbolTableRecord
100
AcDbLinetypeTableRecord
2
BYLAYER
70
0
0
ENDTAB
0
TABLE
2
LAYER
5
2
100
AcDbSymbolTable
70
2
0
LAYER
5
50
100
AcDbSymbolTableRecord
100
AcDbLayerTableRecord
2
0
70
0
6
CONTINUOUS
0
ENDTAB
0
TABLE
2
STYLE
5
3
100
AcDbSymbolTable
70
1
0
STYLE
5
11
100
AcDbSymbolTableRecord
100
AcDbTextStyleTableRecord
2
STANDARD
70
0
0
ENDTAB
0
TABLE
2
VIEW
5
6
100
AcDbSymbolTable
70
0
0
ENDTAB
0
TABLE
2
UCS
5
7
100
AcDbSymbolTable
70
0
0
ENDTAB
0
TABLE
2
APPID
5
9
100
AcDbSymbolTable
70
2
0
APPID
5
12
100
AcDbSymbolTableRecord
100
AcDbRegAppTableRecord
2
ACAD
70
0
0
ENDTAB
0
TABLE
2
DIMSTYLE
5
A
100
AcDbSymbolTable
70
1
0
ENDTAB
0
TABLE
2
BLOCK_RECORD
5
1
100
AcDbSymbolTable
70
1
0
BLOCK_RECORD
5
1F
100
AcDbSymbolTableRecord
100
AcDbBlockTableRecord
2
*MODEL_SPACE
0
BLOCK_RECORD
5
1B
100
AcDbSymbolTableRecord
100
AcDbBlockTableRecord
2
*PAPER_SPACE
0
ENDTAB
0
ENDSEC
0
SECTION
2
BLOCKS
0
BLOCK
5
20
100
AcDbEntity
100
AcDbBlockBegin
2
*MODEL_SPACE
0
ENDBLK
5
21
100
AcDbEntity
100
AcDbBlockEnd
0
BLOCK
5
1C
100
AcDbEntity
100
AcDbBlockBegin
2
*PAPER_SPACE
0
ENDBLK
5
1D
100
AcDbEntity
100
AcDbBlockEnd
0
ENDSEC
0
SECTION
2
ENTITIES
0
LWPOLYLINE
5
100
100
AcDbEntity
8
0
100
AcDbPolyline
90
24
70
1
43
0.0
10
-5.4982658004895413
20
-115.00712294653991
10
-5.4982658004895502
20
-42.304926164007128
42
0.41421356237309409
10
-7.4982658004895502
20
-40.304926164007128
10
-67.698265800489551
20
-40.304926164007128
42
-0.41421356237309509
10
-73.198265800489551
20
-34.804926164007128
10
-73.198265800489551
20
-25.558441896179428
42
0.37685373840141606
10
-74.940550718336382
20
-23.575115665719402
10
-91.965300204526386
20
-21.362905367137742
42
-0.009986605072982083
10
-95.915175385440818
20
-20.769214720613654
42
-0.078108014729474137
10
-125.27425028439342
20
-10.650905213799016
42
0.40376424681058037
10
-127.94365286419796
20
-11.417645617787862
10
-146.65480494035646
20
-43.826311681842242
42
0.41421356237310197
10
-145.92275413278759
20
-46.55836248941111
10
-124.27418401692806
20
-59.057170273373075
42
-0.26794919243112264
10
-121.52418401692806
20
-63.820309994187497
10
-121.52418401692806
20
-117.97582175786472
42
0.31401833106768473
10
-120.21697553825575
20
-119.85199869727541
10
-113.93459424230208
20
-122.17181214565485
42
0.11366983800709171
10
-64.957761186685048
20
-128.4433583827965
10
-58.486386930133669
20
-127.80052658825504
42
0.020597993658898216
10
-49.516002373749323
20
-126.53457301748125
10
-35.811233403218026
20
-124.02103460367201
42
0.017015854407755663
10
-28.4994210044512
20
-122.42110894456829
10
-7.004529503439616
20
-116.94522110426449
42
0.34290180938466158
0
CIRCLE
5
101
100
AcDbEntity
8
0
100
AcDbCircle
10
-119.12948806680619
20
-36.380841061738771
30
0
40
1.0999999999999943
210
0
220
-0
230
1
0
CIRCLE
5
102
100
AcDbEntity
8
0
100
AcDbCircle
10
-25.96316006680614
20
-59.598009061738786
30
0
40
1.0999999999999985
210
0
220
-0
230
1
0
CIRCLE
5
103
100
AcDbEntity
8
0
100
AcDbCircle
10
-25.96316006680614
20
-97.697977061738783
30
0
40
1.0999999999999985
210
0
220
-0
230
1
0
CIRCLE
5
104
100
AcDbEntity
8
0
100
AcDbCircle
10
-102.16309606680618
20
-101.26984906173881
30
0
40
1.0999999999999943
210
0
220
-0
230
1
0
CIRCLE
5
105
100
AcDbEntity
8
0
100
AcDbCircle
10
-102.16309606680618
20
-63.169881061738792
30
0
40
1.0999999999999943
210
0
220
-0
230
1
0
LWPOLYLINE
5
106
100
AcDbEntity
8
0
100
AcDbPolyline
90
4
70
1
43
0.0
10
-135.74002338773002
20
-29.723942072107761
10
-123.4424647550081
20
-36.823940859084985
10
-130.44247407356062
20
-48.948291220374756
10
-142.74002727175906
20
-41.848283020543413
0
LWPOLYLINE
5
107
100
AcDbEntity
8
0
100
AcDbPolyline
90
4
70
1
43
0.0
10
-126.21500536366405
20
-13.226156074123416
10
-113.91745216546552
20
-20.326164273954621
10
-120.91746148401803
20
-32.450514635244403
10
-133.21500924769308
20
-25.350497022559058
0
LWPOLYLINE
5
108
100
AcDbEntity
8
0
100
AcDbPolyline
90
4
70
1
43
0.0
10
-99.738168060312304
20
-66.960469074726646
10
-85.538168063774947
20
-66.960469074726646
10
-85.538168063774904
20
-80.960469071263702
10
-99.738168060312304
20
-80.960469071263702
0
LWPOLYLINE
5
109
100
AcDbEntity
8
0
100
AcDbPolyline
90
4
70
1
43
0.0
10
-9.3381680685374473
20
-57.147969076026541
10
-23.538168065074832
20
-57.147969076026541
10
-23.538168065074821
20
-43.147969079489172
10
-9.3381680685374491
20
-43.147969079489172
0
LWPOLYLINE
5
110
100
AcDbEntity
8
0
100
AcDbPolyline
90
4
70
1
43
0.0
10
-61.63816806031231
20
-105.06046906520125
10
-47.43816806377491
20
-105.06046906520125
10
-47.43816806377491
20
-119.06046906173881
10
-61.63816806031231
20
-119.06046906173881
0
LWPOLYLINE
5
111
100
AcDbEntity
8
0
100
AcDbPolyline
90
4
70
1
43
0.0
10
-42.588168060312299
20
-43.147969079489172
10
-28.388168063774906
20
-43.147969079489172
10
-28.388168063774906
20
-57.147969076026541
10
-42.588168060312299
20
-57.147969076026541
0
LWPOLYLINE
5
112
100
AcDbEntity
8
0
100
AcDbPolyline
90
4
70
1
43
0.0
10
-118.7881680603123
20
-59.529219076026543
10
-118.7881680603123
20
-45.529219079489181
10
-104.58816806377496
20
-45.529219079489181
10
-104.58816806377496
20
-59.529219076026543
0
LWPOLYLINE
5
113
100
AcDbEntity
8
0
100
AcDbPolyline
90
4
70
1
43
0.0
10
-61.63816806031231
20
-100.01046906650117
10
-61.63816806031231
20
-86.010469069963747
10
-47.43816806377491
20
-86.010469069963747
10
-47.43816806377491
20
-100.01046906650117
0
LWPOLYLINE
5
114
100
AcDbEntity
8
0
100
AcDbPolyline
90
4
70
1
43
0.0
10
-80.688168060312293
20
-121.44171906173881
10
-80.688168060312293
20
-107.44171906520123
10
-66.488168063774935
20
-107.44171906520123
10
-66.488168063774907
20
-121.44171906173881
0
LWPOLYLINE
5
115
100
AcDbEntity
8
0
100
AcDbPolyline
90
4
70
1
43
0.0
10
-47.43816806377491
20
-47.910469079489182
10
-47.43816806377491
20
-61.910469076026544
10
-61.63816806031231
20
-61.910469076026544
10
-61.63816806031231
20
-47.910469079489182
0
LWPOLYLINE
5
116
100
AcDbEntity
8
0
100
AcDbPolyline
90
4
70
1
43
0.0
10
-61.63816806031231
20
-66.960469074726646
10
-47.43816806377491
20
-66.960469074726646
10
-47.43816806377491
20
-80.960469071263702
10
-61.63816806031231
20
-80.960469071263702
0
LWPOLYLINE
5
117
100
AcDbEntity
8
0
100
AcDbPolyline
90
4
70
1
43
0.0
10
-28.388168063774906
20
-62.197969074726636
10
-28.388168063774906
20
-76.197969071263699
10
-42.588168060312299
20
-76.197969071263699
10
-42.588168060312299
20
-62.197969074726636
0
LWPOLYLINE
5
118
100
AcDbEntity
8
0
100
AcDbPolyline
90
4
70
1
43
0.0
10
-85.538168063774904
20
-61.910469076026544
10
-99.738168060312304
20
-61.910469076026544
10
-99.738168060312304
20
-47.910469079489182
10
-85.538168063774947
20
-47.910469079489182
0
LWPOLYLINE
5
119
100
AcDbEntity
8
0
100
AcDbPolyline
90
4
70
1
43
0.0
10
-42.588168060312299
20
-114.29796906173878
10
-42.588168060312299
20
-100.29796906520124
10
-28.388168063774906
20
-100.29796906520124
10
-28.388168063774906
20
-114.29796906173878
0
LWPOLYLINE
5
120
100
AcDbEntity
8
0
100
AcDbPolyline
90
4
70
1
43
0.0
10
-28.388168063774906
20
-81.24796906996373
10
-28.388168063774906
20
-95.247969066501156
10
-42.588168060312299
20
-95.247969066501156
10
-42.588168060312299
20
-81.24796906996373
0
LWPOLYLINE
5
121
100
AcDbEntity
8
0
100
AcDbPolyline
90
4
70
1
43
0.0
10
-23.538168065074832
20
-76.197969071263699
10
-23.538168065074821
20
-62.197969074726636
10
-9.3381680685374491
20
-62.197969074726636
10
-9.3381680685374473
20
-76.197969071263699
0
LWPOLYLINE
5
122
100
AcDbEntity
8
0
100
AcDbPolyline
90
4
70
1
43
0.0
10
-80.688168060312293
20
-64.291719076026538
10
-80.688168060312293
20
-50.291719079489184
10
-66.488168063774935
20
-50.291719079489184
10
-66.488168063774907
20
-64.291719076026538
0
LWPOLYLINE
5
123
100
AcDbEntity
8
0
100
AcDbPolyline
90
4
70
1
43
0.0
10
-104.58816806377496
20
-83.629219069963753
10
-104.58816806377496
20
-97.629219066501179
10
-118.7881680603123
20
-97.629219066501179
10
-118.7881680603123
20
-83.629219069963753
0
LWPOLYLINE
5
124
100
AcDbEntity
8
0
100
AcDbPolyline
90
4
70
1
43
0.0
10
-99.738168060312304
20
-119.06046906173881
10
-99.738168060312304
20
-105.06046906520125
10
-85.538168063774947
20
-105.06046906520125
10
-85.538168063774904
20
-119.06046906173881
0
LWPOLYLINE
5
125
100
AcDbEntity
8
0
100
AcDbPolyline
90
4
70
1
43
0.0
10
-104.58816806377496
20
-102.67921906520122
10
-104.58816806377496
20
-116.67921906173881
10
-118.7881680603123
20
-116.67921906173881
10
-118.7881680603123
20
-102.67921906520122
0
LWPOLYLINE
5
126
100
AcDbEntity
8
0
100
AcDbPolyline
90
4
70
1
43
0.0
10
-104.58816806377496
20
-64.579219074726652
10
-104.58816806377496
20
-78.579219071263708
10
-118.7881680603123
20
-78.579219071263708
10
-118.7881680603123
20
-64.579219074726652
0
LWPOLYLINE
5
127
100
AcDbEntity
8
0
100
AcDbPolyline
90
4
70
1
43
0.0
10
-9.3381680685374491
20
-81.24796906996373
10
-9.3381680685374473
20
-95.247969066501156
10
-23.538168065074832
20
-95.247969066501156
10
-23.538168065074821
20
-81.24796906996373
0
LWPOLYLINE
5
128
100
AcDbEntity
8
0
100
AcDbPolyline
90
4
70
1
43
0.0
10
-66.488168063774935
20
-88.391719069963756
10
-66.488168063774907
20
-102.39171906650115
10
-80.688168060312293
20
-102.39171906650115
10
-80.688168060312293
20
-88.391719069963756
0
LWPOLYLINE
5
129
100
AcDbEntity
8
0
100
AcDbPolyline
90
4
70
1
43
0.0
10
-80.688168060312293
20
-69.341719074726655
10
-66.488168063774935
20
-69.341719074726655
10
-66.488168063774907
20
-83.341719071263725
10
-80.688168060312293
20
-83.341719071263725
0
LWPOLYLINE
5
130
100
AcDbEntity
8
0
100
AcDbPolyline
90
4
70
1
43
0.0
10
-23.538168065074821
20
-100.29796906520124
10
-9.3381680685374491
20
-100.29796906520124
10
-9.3381680685374473
20
-114.29796906173878
10
-23.538168065074832
20
-114.29796906173878
0
LWPOLYLINE
5
131
100
AcDbEntity
8
0
100
AcDbPolyline
90
4
70
1
43
0.0
10
-85.538168063774904
20
-100.01046906650117
10
-99.738168060312304
20
-100.01046906650117
10
-99.738168060312304
20
-86.010469069963747
10
-85.538168063774947
20
-86.010469069963747
0
LWPOLYLINE
5
132
100
AcDbEntity
8
0
100
AcDbPolyline
90
4
70
1
43
0.0
10
-95.063168063774967
20
-38.097969076026544
10
-109.26316806031231
20
-38.097969076026544
10
-109.26316806031231
20
-24.097969079489179
10
-95.063168063774967
20
-24.097969079489179
0
LWPOLYLINE
5
133
100
AcDbEntity
8
0
100
AcDbPolyline
90
4
70
1
43
0.0
10
-90.213168060312228
20
-40.479219076026553
10
-90.213168060312228
20
-26.47921907948918
10
-76.013168063774913
20
-26.47921907948918
10
-76.013168063774913
20
-40.479219076026553
0
ENDSEC
0
SECTION
2
OBJECTS
0
DICTIONARY
5
C
100
AcDbDictionary
3
ACAD_GROUP
350
D
3
ACAD_MLINESTYLE
350
17
0
DICTIONARY
5
D
100
AcDbDictionary
0
DICTIONARY
5
1A
330
C
100
AcDbDictionary
0
DICTIONARY
5
17
100
AcDbDictionary
0
ENDSEC
0
EOF
