0
SECTION
2
HEADER
9
$INSUNITS
70
4
9
$ACADVER
1
AC1014
9
$HANDSEED
5
FFFF
0
ENDSEC
0
SECTION
2
TABLES
0
TABLE
2
VPORT
5
8
100
AcDbSymbolTable
0
ENDTAB
0
TABLE
2
LTYPE
5
5
100
AcDbSymbolTable
70
2
0
LTYPE
5
14
100
AcDbSymbolTableRecord
100
AcDbLinetypeTableRecord
2
BYBLOCK
70
0
0
LTYPE
5
15
100
AcDbSymbolTableRecord
100
AcDbLinetypeTableRecord
2
BYLAYER
70
0
0
ENDTAB
0
TABLE
2
LAYER
5
2
100
AcDbSymbolTable
70
3
0
LAYER
5
50
100
AcDbSymbolTableRecord
100
AcDbLayerTableRecord
2
0
70
0
6
CONTINUOUS
0
LAYER
5
51
100
AcDbSymbolTableRecord
100
AcDbLayerTableRecord
2
CUTOUTS
70
0
62
1
6
CONTINUOUS
0
LAYER
5
52
100
AcDbSymbolTableRecord
100
AcDbLayerTableRecord
2
PERIMETER
70
0
62
5
6
CONTINUOUS
0
ENDTAB
0
TABLE
2
STYLE
5
3
100
AcDbSymbolTable
70
1
0
STYLE
5
11
100
AcDbSymbolTableRecord
100
AcDbTextStyleTableRecord
2
STANDARD
70
0
0
ENDTAB
0
TABLE
2
VIEW
5
6
100
AcDbSymbolTable
0
ENDTAB
0
TABLE
2
UCS
5
7
100
AcDbSymbolTable
0
ENDTAB
0
TABLE
2
APPID
5
9
100
AcDbSymbolTable
70
1
0
APPID
5
12
100
AcDbSymbolTableRecord
100
AcDbRegAppTableRecord
2
ACAD
70
0
0
ENDTAB
0
TABLE
2
DIMSTYLE
5
A
100
AcDbSymbolTable
0
ENDTAB
0
TABLE
2
BLOCK_RECORD
5
1
100
AcDbSymbolTable
70
2
0
BLOCK_RECORD
5
1F
100
AcDbSymbolTableRecord
100
AcDbBlockTableRecord
2
*MODEL_SPACE
0
BLOCK_RECORD
5
1B
100
AcDbSymbolTableRecord
100
AcDbBlockTableRecord
2
*PAPER_SPACE
0
ENDTAB
0
ENDSEC
0
SECTION
2
BLOCKS
0
BLOCK
5
20
100
AcDbEntity
100
AcDbBlockBegin
2
*MODEL_SPACE
0
ENDBLK
5
21
100
AcDbEntity
100
AcDbBlockEnd
0
BLOCK
5
1C
100
AcDbEntity
100
AcDbBlockBegin
2
*PAPER_SPACE
0
ENDBLK
5
1D
100
AcDbEntity
100
AcDbBlockEnd
0
ENDSEC
0
SECTION
2
ENTITIES
0
CIRCLE
5
100
100
AcDbEntity
8
CUTOUTS
100
AcDbCircle
10
119.12948806680619
20
36.380841061738771
30
0
40
2.5
210
0
220
0
230
1
0
CIRCLE
5
101
100
AcDbEntity
8
CUTOUTS
100
AcDbCircle
10
102.16309606680618
20
63.169881061738792
30
0
40
2.5
210
0
220
0
230
1
0
CIRCLE
5
102
100
AcDbEntity
8
CUTOUTS
100
AcDbCircle
10
102.16309606680618
20
101.26984906173881
30
0
40
2.5
210
0
220
0
230
1
0
CIRCLE
5
103
100
AcDbEntity
8
CUTOUTS
100
AcDbCircle
10
25.96316006680614
20
59.598009061738786
30
0
40
2.4999999999999956
210
0
220
0
230
1
0
CIRCLE
5
104
100
AcDbEntity
8
CUTOUTS
100
AcDbCircle
10
25.96316006680614
20
97.697977061738783
30
0
40
2.4999999999999956
210
0
220
0
230
1
0
CIRCLE
5
105
100
AcDbEntity
8
CUTOUTS
100
AcDbCircle
10
131.61950160552215
20
30.901170733520253
30
0
40
2.6999999999999957
210
0
220
0
230
1
0
CIRCLE
5
106
100
AcDbEntity
8
CUTOUTS
100
AcDbCircle
10
81.619501605522174
20
30.901170733520257
30
0
40
2.6999999999999957
210
0
220
0
230
1
0
CIRCLE
5
107
100
AcDbEntity
8
CUTOUTS
100
AcDbCircle
10
83.013113068537464
20
81.699553061738783
30
0
40
1.9999999999999929
210
0
220
0
230
1
0
CIRCLE
5
108
100
AcDbEntity
8
CUTOUTS
100
AcDbCircle
10
18.511224908708826
20
53.94057874063067
30
0
40
2.699999999999998
210
0
220
0
230
1
0
CIRCLE
5
109
100
AcDbEntity
8
CUTOUTS
100
AcDbCircle
10
108.51122490870881
20
53.94057874063067
30
0
40
2.6999999999999957
210
0
220
0
230
1
0
CIRCLE
5
10A
100
AcDbEntity
8
CUTOUTS
100
AcDbCircle
10
108.51122490870881
20
103.94057874063067
30
0
40
2.6999999999999957
210
0
220
0
230
1
0
CIRCLE
5
10B
100
AcDbEntity
8
CUTOUTS
100
AcDbCircle
10
18.511224908708826
20
103.94057874063067
30
0
40
2.699999999999998
210
0
220
0
230
1
0
LWPOLYLINE
5
10C
100
AcDbEntity
8
PERIMETER
100
AcDbPolyline
90
28
70
1
43
0.0
10
6.9982658004895546
20
42.304926164007128
42
0.4142135623730801
10
7.4982658004895626
20
41.804926164007128
10
67.698265800489551
20
41.804926164007128
42
-0.41421356237309481
10
74.698265800489565
20
34.804926164007128
10
74.698265800489551
20
25.558441896179428
42
0.37685373840142494
10
75.133837029951252
20
25.062610338564411
10
92.158586516107292
20
22.85040003971686
42
-0.0099992240619142976
10
96.172759479165975
20
22.246941450793393
42
-0.078120709252932088
10
125.97726411357027
20
11.975960516790636
42
0.40376424681052531
10
126.6446147585213
20
12.167645617787892
10
145.35576683467983
20
44.576311681842228
42
0.41421356237311824
10
145.17275413278759
20
45.259324383734437
10
123.52418401692805
20
57.758132167696431
42
-0.26794919243111692
10
120.02418401692806
20
63.820309994187497
10
120.02418401692807
20
117.97582175786472
42
0.31401833106765664
10
119.69738189725996
20
118.4448659927174
10
113.4150006013063
20
120.76467944109686
42
0.058972288843063894
10
88.616219850019405
20
126.72617406173433
10
76.782016306302452
20
126.7261740617339
42
-0.15654655124118849
10
74.599641749058705
20
127.42662634249828
42
0.159806134568721
10
74.450970180136906
20
127.47330293646567
42
0.021575794932554557
10
65.106033450992982
20
126.95070459318652
10
58.634659194441774
20
126.30787279864509
42
0.020597993658899229
10
49.786598063826268
20
125.05918223110912
10
36.081829093295013
20
122.54564381729989
42
0.017015854407755254
10
28.869723227239117
20
120.96753532627494
10
7.374831726227038
20
115.49164748597106
42
0.3429018093846472
10
6.9982658004895342
20
115.00712294653991
0
ENDSEC
0
SECTION
2
OBJECTS
0
DICTIONARY
5
C
100
AcDbDictionary
3
ACAD_GROUP
350
D
3
ACAD_MLINESTYLE
350
17
0
DICTIONARY
5
D
100
AcDbDictionary
0
DICTIONARY
5
1A
330
C
100
AcDbDictionary
0
DICTIONARY
5
17
100
AcDbDictionary
0
ENDSEC
0
EOF
