0
SECTION
2
HEADER
9
$INSUNITS
70
4
9
$ACADVER
1
AC1014
9
$HANDSEED
5
FFFF
0
ENDSEC
0
SECTION
2
TABLES
0
TABLE
2
VPORT
5
8
100
AcDbSymbolTable
0
ENDTAB
0
TABLE
2
LTYPE
5
5
100
AcDbSymbolTable
70
2
0
LTYPE
5
14
100
AcDbSymbolTableRecord
100
AcDbLinetypeTableRecord
2
BYBLOCK
70
0
0
LTYPE
5
15
100
AcDbSymbolTableRecord
100
AcDbLinetypeTableRecord
2
BYLAYER
70
0
0
ENDTAB
0
TABLE
2
LAYER
5
2
100
AcDbSymbolTable
70
3
0
LAYER
5
50
100
AcDbSymbolTableRecord
100
AcDbLayerTableRecord
2
0
70
0
6
CONTINUOUS
0
LAYER
5
51
100
AcDbSymbolTableRecord
100
AcDbLayerTableRecord
2
CUTOUTS
70
0
62
1
6
CONTINUOUS
0
LAYER
5
52
100
AcDbSymbolTableRecord
100
AcDbLayerTableRecord
2
PERIMETER
70
0
62
5
6
CONTINUOUS
0
ENDTAB
0
TABLE
2
STYLE
5
3
100
AcDbSymbolTable
70
1
0
STYLE
5
11
100
AcDbSymbolTableRecord
100
AcDbTextStyleTableRecord
2
STANDARD
70
0
0
ENDTAB
0
TABLE
2
VIEW
5
6
100
AcDbSymbolTable
0
ENDTAB
0
TABLE
2
UCS
5
7
100
AcDbSymbolTable
0
ENDTAB
0
TABLE
2
APPID
5
9
100
AcDbSymbolTable
70
1
0
APPID
5
12
100
AcDbSymbolTableRecord
100
AcDbRegAppTableRecord
2
ACAD
70
0
0
ENDTAB
0
TABLE
2
DIMSTYLE
5
A
100
AcDbSymbolTable
0
ENDTAB
0
TABLE
2
BLOCK_RECORD
5
1
100
AcDbSymbolTable
70
2
0
BLOCK_RECORD
5
1F
100
AcDbSymbolTableRecord
100
AcDbBlockTableRecord
2
*MODEL_SPACE
0
BLOCK_RECORD
5
1B
100
AcDbSymbolTableRecord
100
AcDbBlockTableRecord
2
*PAPER_SPACE
0
ENDTAB
0
ENDSEC
0
SECTION
2
BLOCKS
0
BLOCK
5
20
100
AcDbEntity
100
AcDbBlockBegin
2
*MODEL_SPACE
0
ENDBLK
5
21
100
AcDbEntity
100
AcDbBlockEnd
0
BLOCK
5
1C
100
AcDbEntity
100
AcDbBlockBegin
2
*PAPER_SPACE
0
ENDBLK
5
1D
100
AcDbEntity
100
AcDbBlockEnd
0
ENDSEC
0
SECTION
2
ENTITIES
0
CIRCLE
5
100
100
AcDbEntity
8
CUTOUTS
100
AcDbCircle
10
102.16309606680618
20
101.26984906173881
30
0
40
1.0999999999999943
210
0
220
0
230
1
0
CIRCLE
5
101
100
AcDbEntity
8
CUTOUTS
100
AcDbCircle
10
25.96316006680614
20
97.697977061738783
30
0
40
1.0999999999999988
210
0
220
0
230
1
0
CIRCLE
5
102
100
AcDbEntity
8
CUTOUTS
100
AcDbCircle
10
102.16309606680618
20
63.169881061738792
30
0
40
1.0999999999999943
210
0
220
0
230
1
0
CIRCLE
5
103
100
AcDbEntity
8
CUTOUTS
100
AcDbCircle
10
25.96316006680614
20
59.598009061738786
30
0
40
1.0999999999999988
210
0
220
0
230
1
0
CIRCLE
5
104
100
AcDbEntity
8
CUTOUTS
100
AcDbCircle
10
119.12948806680619
20
36.380841061738771
30
0
40
1.0999999999999943
210
0
220
0
230
1
0
LWPOLYLINE
5
105
100
AcDbEntity
8
CUTOUTS
100
AcDbPolyline
90
4
70
1
43
0.0
10
113.74424716125118
20
20.426164406530081
10
120.74425655634629
20
32.550514900395292
10
133.38821417536482
20
25.250496757408165
10
126.38821036787839
20
13.126155941547957
0
LWPOLYLINE
5
106
100
AcDbEntity
8
CUTOUTS
100
AcDbPolyline
90
4
70
1
43
0.0
10
28.188168063774906
20
43.147969079489172
10
28.188168063774906
20
57.147969076026541
10
42.788168060312294
20
57.147969076026541
10
42.788168060312294
20
43.147969079489172
0
LWPOLYLINE
5
107
100
AcDbEntity
8
CUTOUTS
100
AcDbPolyline
90
4
70
1
43
0.0
10
118.98816806031229
20
45.529219079489181
10
104.38816806377496
20
45.529219079489181
10
104.38816806377496
20
59.529219076026543
10
118.98816806031229
20
59.529219076026543
0
LWPOLYLINE
5
108
100
AcDbEntity
8
CUTOUTS
100
AcDbPolyline
90
4
70
1
43
0.0
10
47.238168063774914
20
66.960469074726646
10
47.238168063774914
20
80.960469071263702
10
61.838168060312306
20
80.960469071263702
10
61.838168060312306
20
66.960469074726646
0
LWPOLYLINE
5
109
100
AcDbEntity
8
CUTOUTS
100
AcDbPolyline
90
4
70
1
43
0.0
10
28.188168063774906
20
81.24796906996373
10
28.188168063774906
20
95.247969066501156
10
42.788168060312294
20
95.247969066501156
10
42.788168060312294
20
81.24796906996373
0
LWPOLYLINE
5
10A
100
AcDbEntity
8
CUTOUTS
100
AcDbPolyline
90
4
70
1
43
0.0
10
104.38816806377496
20
97.629219066501179
10
118.98816806031229
20
97.629219066501179
10
118.98816806031229
20
83.629219069963753
10
104.38816806377496
20
83.629219069963753
0
LWPOLYLINE
5
10B
100
AcDbEntity
8
CUTOUTS
100
AcDbPolyline
90
4
70
1
43
0.0
10
61.838168060312306
20
105.06046906520125
10
47.238168063774914
20
105.06046906520125
10
47.238168063774914
20
119.06046906173881
10
61.838168060312306
20
119.06046906173881
0
LWPOLYLINE
5
10C
100
AcDbEntity
8
CUTOUTS
100
AcDbPolyline
90
4
70
1
43
0.0
10
42.788168060312294
20
100.29796906520124
10
28.188168063774906
20
100.29796906520124
10
28.188168063774906
20
114.29796906173878
10
42.788168060312294
20
114.29796906173878
0
LWPOLYLINE
5
10D
100
AcDbEntity
8
CUTOUTS
100
AcDbPolyline
90
4
70
1
43
0.0
10
104.38816806377496
20
116.67921906173881
10
118.98816806031229
20
116.67921906173881
10
118.98816806031229
20
102.67921906520122
10
104.38816806377496
20
102.67921906520122
0
LWPOLYLINE
5
10E
100
AcDbEntity
8
CUTOUTS
100
AcDbPolyline
90
4
70
1
43
0.0
10
61.838168060312306
20
100.01046906650117
10
61.838168060312306
20
86.010469069963747
10
47.238168063774914
20
86.010469069963747
10
47.238168063774914
20
100.01046906650117
0
LWPOLYLINE
5
10F
100
AcDbEntity
8
CUTOUTS
100
AcDbPolyline
90
4
70
1
43
0.0
10
28.188168063774906
20
76.197969071263699
10
42.788168060312294
20
76.197969071263699
10
42.788168060312294
20
62.197969074726636
10
28.188168063774906
20
62.197969074726636
0
LWPOLYLINE
5
110
100
AcDbEntity
8
CUTOUTS
100
AcDbPolyline
90
4
70
1
43
0.0
10
104.38816806377496
20
78.579219071263708
10
118.98816806031229
20
78.579219071263708
10
118.98816806031229
20
64.579219074726652
10
104.38816806377496
20
64.579219074726652
0
LWPOLYLINE
5
111
100
AcDbEntity
8
CUTOUTS
100
AcDbPolyline
90
4
70
1
43
0.0
10
47.238168063774914
20
61.910469076026544
10
61.838168060312306
20
61.910469076026544
10
61.838168060312306
20
47.910469079489182
10
47.238168063774914
20
47.910469079489182
0
LWPOLYLINE
5
112
100
AcDbEntity
8
CUTOUTS
100
AcDbPolyline
90
4
70
1
43
0.0
10
109.46316806031231
20
38.097969076026544
10
109.46316806031231
20
24.097969079489175
10
94.863168063774964
20
24.097969079489175
10
94.863168063774964
20
38.097969076026544
0
LWPOLYLINE
5
113
100
AcDbEntity
8
CUTOUTS
100
AcDbPolyline
90
4
70
1
43
0.0
10
123.26925967425117
20
36.923940859085008
10
130.26926906934625
20
49.048291352950208
10
142.91323227597337
20
41.748282887967946
10
135.91322846848698
20
29.623942072107738
0
LWPOLYLINE
5
114
100
AcDbEntity
8
CUTOUTS
100
AcDbPolyline
90
4
70
1
43
0.0
10
9.1381680685374498
20
57.147969076026541
10
23.738168065074831
20
57.147969076026541
10
23.738168065074824
20
43.147969079489172
10
9.1381680685374516
20
43.147969079489172
0
LWPOLYLINE
5
115
100
AcDbEntity
8
CUTOUTS
100
AcDbPolyline
90
4
70
1
43
0.0
10
99.938168060312307
20
61.910469076026544
10
99.938168060312307
20
47.910469079489182
10
85.338168063774944
20
47.910469079489182
10
85.338168063774901
20
61.910469076026544
0
LWPOLYLINE
5
116
100
AcDbEntity
8
CUTOUTS
100
AcDbPolyline
90
4
70
1
43
0.0
10
80.888168060312296
20
83.341719071263725
10
80.888168060312296
20
69.341719074726655
10
66.288168063774933
20
69.341719074726655
10
66.288168063774918
20
83.341719071263725
0
LWPOLYLINE
5
117
100
AcDbEntity
8
CUTOUTS
100
AcDbPolyline
90
4
70
1
43
0.0
10
9.1381680685374516
20
81.24796906996373
10
9.1381680685374498
20
95.247969066501156
10
23.738168065074831
20
95.247969066501156
10
23.738168065074824
20
81.24796906996373
0
LWPOLYLINE
5
118
100
AcDbEntity
8
CUTOUTS
100
AcDbPolyline
90
4
70
1
43
0.0
10
99.938168060312307
20
100.01046906650117
10
99.938168060312307
20
86.010469069963747
10
85.338168063774944
20
86.010469069963747
10
85.338168063774901
20
100.01046906650117
0
LWPOLYLINE
5
119
100
AcDbEntity
8
CUTOUTS
100
AcDbPolyline
90
4
70
1
43
0.0
10
80.888168060312296
20
107.44171906520123
10
66.288168063774933
20
107.44171906520123
10
66.288168063774918
20
121.44171906173881
10
80.888168060312296
20
121.44171906173881
0
LWPOLYLINE
5
11A
100
AcDbEntity
8
CUTOUTS
100
AcDbPolyline
90
4
70
1
43
0.0
10
9.1381680685374516
20
100.29796906520124
10
9.1381680685374498
20
114.29796906173878
10
23.738168065074831
20
114.29796906173878
10
23.738168065074824
20
100.29796906520124
0
LWPOLYLINE
5
11B
100
AcDbEntity
8
CUTOUTS
100
AcDbPolyline
90
4
70
1
43
0.0
10
99.938168060312307
20
119.06046906173881
10
99.938168060312307
20
105.06046906520125
10
85.338168063774944
20
105.06046906520125
10
85.338168063774901
20
119.06046906173881
0
LWPOLYLINE
5
11C
100
AcDbEntity
8
CUTOUTS
100
AcDbPolyline
90
4
70
1
43
0.0
10
66.288168063774933
20
88.391719069963756
10
66.288168063774918
20
102.39171906650115
10
80.888168060312296
20
102.39171906650115
10
80.888168060312296
20
88.391719069963756
0
LWPOLYLINE
5
11D
100
AcDbEntity
8
CUTOUTS
100
AcDbPolyline
90
4
70
1
43
0.0
10
23.738168065074824
20
62.197969074726636
10
9.1381680685374516
20
62.197969074726636
10
9.1381680685374498
20
76.197969071263699
10
23.738168065074831
20
76.197969071263699
0
LWPOLYLINE
5
11E
100
AcDbEntity
8
CUTOUTS
100
AcDbPolyline
90
4
70
1
43
0.0
10
99.938168060312307
20
66.960469074726646
10
85.338168063774944
20
66.960469074726646
10
85.338168063774901
20
80.960469071263702
10
99.938168060312307
20
80.960469071263702
0
LWPOLYLINE
5
11F
100
AcDbEntity
8
CUTOUTS
100
AcDbPolyline
90
4
70
1
43
0.0
10
80.888168060312296
20
64.291719076026538
10
80.888168060312296
20
50.291719079489184
10
66.288168063774933
20
50.291719079489184
10
66.288168063774918
20
64.291719076026538
0
LWPOLYLINE
5
120
100
AcDbEntity
8
CUTOUTS
100
AcDbPolyline
90
4
70
1
43
0.0
10
90.413168060312216
20
40.479219076026553
10
90.413168060312216
20
26.479219079489177
10
75.813168063774924
20
26.479219079489177
10
75.813168063774924
20
40.479219076026553
0
LWPOLYLINE
5
121
100
AcDbEntity
8
PERIMETER
100
AcDbPolyline
90
30
70
1
43
0.0
10
8.0038010685374559
20
41.813649061801797
10
71.999841068537464
20
41.813266061826056
42
-0.41419065413859474
10
73.785777068537726
20
40.027330061738802
10
73.785777068537456
20
27.22850506173879
42
0.41942834331158985
10
75.603510068537105
20
25.442852061757751
10
77.091792068537416
20
25.442677061817864
42
-0.14783291047524921
10
125.28026606857406
20
10.857426061793669
42
0.4142133787339547
10
127.66151206848704
20
11.45273806176904
10
144.9255614946691
20
41.218338105435066
42
0.4142398098804479
10
144.33024906855184
20
43.599585061762795
10
131.39146606853745
20
51.069795061738787
10
132.50152706853746
20
52.992479061738806
42
0.4141498613900168
10
132.28362906860613
20
53.805691061857701
10
131.12911306853746
20
54.472250061738805
10
123.12704006853747
20
59.092250061738802
10
120.21538006853746
20
60.773297061738788
10
120.21538006853746
20
65.923785061738798
10
120.22011306853747
20
116.82296106173879
42
0.41421305130750591
10
118.43417706853745
20
118.60889706173879
10
89.56154506853747
20
124.2643610617388
10
89.56154306853746
20
126.9508620617388
42
0.41414921933131948
10
88.966231068537454
20
127.5461740617488
10
87.633112068537457
20
127.5461740617388
10
78.39311306853746
20
127.54617306173878
10
77.059993068537466
20
127.5461740617388
42
0.41420969172519501
10
76.464681068538425
20
126.9508620617388
10
76.464681068537459
20
124.2643610617388
10
8.003779068537451
20
116.52517906173881
42
0.41425914142850706
10
6.2178650685408812
20
114.73923706173879
10
6.2178650685374492
20
43.599585061738814
42
0.41421865063022573
0
ENDSEC
0
SECTION
2
OBJECTS
0
DICTIONARY
5
C
100
AcDbDictionary
3
ACAD_GROUP
350
D
3
ACAD_MLINESTYLE
350
17
0
DICTIONARY
5
D
100
AcDbDictionary
0
DICTIONARY
5
1A
330
C
100
AcDbDictionary
0
DICTIONARY
5
17
100
AcDbDictionary
0
ENDSEC
0
EOF
